<?xml version="1.0" ?><svg id="OBJECT" viewBox="0 0 512 512" xmlns="http://www.w3.org/2000/svg"><defs><style>.cls-1{fill:#bddbff;}.cls-2{fill:#3d9ae2;}.cls-3{fill:#fff;}</style></defs><title/><rect class="cls-1" height="40" width="497" x="7.5" y="464.5"/><path class="cls-2" d="M504.5,512H7.5A7.5,7.5,0,0,1,0,504.5v-40A7.5,7.5,0,0,1,7.5,457h497a7.5,7.5,0,0,1,7.5,7.5v40A7.5,7.5,0,0,1,504.5,512ZM15,497H497V472H15Z"/><path class="cls-3" d="M56,204.5H456a20,20,0,0,1,20,20v240a0,0,0,0,1,0,0H36a0,0,0,0,1,0,0v-240A20,20,0,0,1,56,204.5Z"/><path class="cls-2" d="M476,472H36a7.5,7.5,0,0,1-7.5-7.5v-240A27.54,27.54,0,0,1,56,197H456a27.54,27.54,0,0,1,27.5,27.5v240A7.5,7.5,0,0,1,476,472ZM43.5,457h425V224.5A12.52,12.52,0,0,0,456,212H56a12.52,12.52,0,0,0-12.5,12.5Z"/><rect class="cls-1" height="40" width="40" x="406" y="294.5"/><path class="cls-2" d="M446,342H406a7.5,7.5,0,0,1-7.5-7.5v-40A7.5,7.5,0,0,1,406,287h40a7.5,7.5,0,0,1,7.5,7.5v40A7.5,7.5,0,0,1,446,342Zm-32.5-15h25V302h-25Z"/><rect class="cls-1" height="40" width="40" x="406" y="364.5"/><path class="cls-2" d="M446,412H406a7.5,7.5,0,0,1-7.5-7.5v-40A7.5,7.5,0,0,1,406,357h40a7.5,7.5,0,0,1,7.5,7.5v40A7.5,7.5,0,0,1,446,412Zm-32.5-15h25V372h-25Z"/><path class="cls-1" d="M56,204.5H456a20,20,0,0,1,20,20v40a0,0,0,0,1,0,0H36a0,0,0,0,1,0,0v-40A20,20,0,0,1,56,204.5Z"/><path class="cls-2" d="M476,272H36a7.5,7.5,0,0,1-7.5-7.5v-40A27.54,27.54,0,0,1,56,197H456a27.54,27.54,0,0,1,27.5,27.5v40A7.5,7.5,0,0,1,476,272ZM43.5,257h425V224.5A12.52,12.52,0,0,0,456,212H56a12.52,12.52,0,0,0-12.5,12.5Z"/><path class="cls-1" d="M156,124.5H356a20,20,0,0,1,20,20v320a0,0,0,0,1,0,0H136a0,0,0,0,1,0,0v-320A20,20,0,0,1,156,124.5Z"/><path class="cls-2" d="M376,472H136a7.5,7.5,0,0,1-7.5-7.5v-320A27.54,27.54,0,0,1,156,117H356a27.54,27.54,0,0,1,27.5,27.5v320A7.5,7.5,0,0,1,376,472ZM143.5,457h225V144.5A12.52,12.52,0,0,0,356,132H156a12.52,12.52,0,0,0-12.5,12.5Z"/><path class="cls-3" d="M186,54.5H326a20,20,0,0,1,20,20v50a0,0,0,0,1,0,0H166a0,0,0,0,1,0,0v-50A20,20,0,0,1,186,54.5Z"/><path class="cls-2" d="M346,132H166a7.5,7.5,0,0,1-7.5-7.5v-50A27.54,27.54,0,0,1,186,47H326a27.54,27.54,0,0,1,27.5,27.5v50A7.5,7.5,0,0,1,346,132ZM173.5,117h165V74.5A12.52,12.52,0,0,0,326,62H186a12.52,12.52,0,0,0-12.5,12.5Z"/><path class="cls-3" d="M256,364.5h0a40,40,0,0,1,40,40v60a0,0,0,0,1,0,0H216a0,0,0,0,1,0,0v-60A40,40,0,0,1,256,364.5Z"/><path class="cls-2" d="M296,472H216a7.5,7.5,0,0,1-7.5-7.5v-60a47.5,47.5,0,0,1,95,0v60A7.5,7.5,0,0,1,296,472Zm-72.5-15h65V404.5a32.5,32.5,0,0,0-65,0Z"/><rect class="cls-3" height="120" width="120" x="196" y="164.5"/><path class="cls-2" d="M316,292H196a7.5,7.5,0,0,1-7.5-7.5v-120A7.5,7.5,0,0,1,196,157H316a7.5,7.5,0,0,1,7.5,7.5v120A7.5,7.5,0,0,1,316,292ZM203.5,277h105V172h-105Z"/><path class="cls-2" d="M256,292a7.5,7.5,0,0,1-7.5-7.5v-120a7.5,7.5,0,0,1,15,0v120A7.5,7.5,0,0,1,256,292Z"/><path class="cls-2" d="M316,232H196a7.5,7.5,0,0,1,0-15H316a7.5,7.5,0,0,1,0,15Z"/><rect class="cls-1" height="40" width="40" x="66" y="294.5"/><path class="cls-2" d="M106,342H66a7.5,7.5,0,0,1-7.5-7.5v-40A7.5,7.5,0,0,1,66,287h40a7.5,7.5,0,0,1,7.5,7.5v40A7.5,7.5,0,0,1,106,342ZM73.5,327h25V302h-25Z"/><rect class="cls-1" height="40" width="40" x="66" y="364.5"/><path class="cls-2" d="M106,412H66a7.5,7.5,0,0,1-7.5-7.5v-40A7.5,7.5,0,0,1,66,357h40a7.5,7.5,0,0,1,7.5,7.5v40A7.5,7.5,0,0,1,106,412ZM73.5,397h25V372h-25Z"/><path class="cls-1" d="M256,7.5h0a20,20,0,0,1,20,20v27a0,0,0,0,1,0,0H236a0,0,0,0,1,0,0v-27A20,20,0,0,1,256,7.5Z"/><path class="cls-2" d="M276,62H236a7.5,7.5,0,0,1-7.5-7.5v-27a27.5,27.5,0,0,1,55,0v27A7.5,7.5,0,0,1,276,62ZM243.5,47h25V27.5a12.5,12.5,0,0,0-25,0Z"/><path class="cls-2" d="M346,97H166a7.5,7.5,0,0,1,0-15H346a7.5,7.5,0,0,1,0,15Z"/></svg>